<mxfile host="app.diagrams.net" modified="2023-11-09T10:49:31.140Z" agent="Mozilla/5.0 (Windows NT 10.0; Win64; x64) AppleWebKit/537.36 (KHTML, like Gecko) Chrome/119.0.0.0 Safari/537.36 Edg/119.0.0.0" etag="PQqZfYKZeVE1WJpsTkis" version="22.1.0" type="github">
  <diagram name="Page-1" id="BuLkYzYD_J0hkiu4NAHW">
    <mxGraphModel dx="3182" dy="1644" grid="1" gridSize="10" guides="1" tooltips="1" connect="1" arrows="1" fold="1" page="1" pageScale="1" pageWidth="850" pageHeight="1100" math="0" shadow="0">
      <root>
        <mxCell id="0" />
        <mxCell id="1" parent="0" />
        <mxCell id="d6kypXudPr4pIB-ikCon-34" value="" style="rounded=0;whiteSpace=wrap;html=1;fontSize=16;" vertex="1" parent="1">
          <mxGeometry x="40" y="160" width="940" height="1290" as="geometry" />
        </mxCell>
        <mxCell id="Rb40YyXB7E7N2DCQwQ0s-6" value="&lt;font style=&quot;font-size: 30px;&quot;&gt;IB&lt;/font&gt;" style="rounded=0;whiteSpace=wrap;html=1;" parent="1" vertex="1">
          <mxGeometry x="-220" y="520" width="120" height="560" as="geometry" />
        </mxCell>
        <mxCell id="Rb40YyXB7E7N2DCQwQ0s-7" value="" style="endArrow=classic;html=1;rounded=0;strokeWidth=3;fontSize=16;" parent="1" edge="1">
          <mxGeometry width="50" height="50" relative="1" as="geometry">
            <mxPoint x="90" y="650" as="sourcePoint" />
            <mxPoint x="940" y="650" as="targetPoint" />
          </mxGeometry>
        </mxCell>
        <mxCell id="d6kypXudPr4pIB-ikCon-36" value="" style="rounded=0;whiteSpace=wrap;html=1;fontSize=16;" vertex="1" parent="1">
          <mxGeometry x="106" y="1120" width="840" height="200" as="geometry" />
        </mxCell>
        <mxCell id="Rb40YyXB7E7N2DCQwQ0s-8" value="" style="endArrow=classic;html=1;rounded=0;entryX=0.5;entryY=1;entryDx=0;entryDy=0;startArrow=classic;startFill=1;strokeWidth=2;fontSize=16;" parent="1" edge="1">
          <mxGeometry width="50" height="50" relative="1" as="geometry">
            <mxPoint x="280" y="650" as="sourcePoint" />
            <mxPoint x="280.0000000000002" y="550" as="targetPoint" />
          </mxGeometry>
        </mxCell>
        <mxCell id="Rb40YyXB7E7N2DCQwQ0s-15" value="Bus Ctrl" style="rounded=0;whiteSpace=wrap;html=1;fontSize=16;" parent="1" vertex="1">
          <mxGeometry x="126" y="1230" width="190" height="60" as="geometry" />
        </mxCell>
        <mxCell id="Rb40YyXB7E7N2DCQwQ0s-24" value="" style="endArrow=classic;html=1;rounded=0;entryX=0.5;entryY=1;entryDx=0;entryDy=0;startArrow=classic;startFill=1;strokeWidth=2;fontSize=16;" parent="1" edge="1">
          <mxGeometry width="50" height="50" relative="1" as="geometry">
            <mxPoint x="730" y="650" as="sourcePoint" />
            <mxPoint x="730.0000000000002" y="550" as="targetPoint" />
          </mxGeometry>
        </mxCell>
        <mxCell id="Rb40YyXB7E7N2DCQwQ0s-25" value="Core Ctrl" style="rounded=0;whiteSpace=wrap;html=1;fontSize=16;" parent="1" vertex="1">
          <mxGeometry x="126" y="1150" width="190" height="60" as="geometry" />
        </mxCell>
        <mxCell id="d6kypXudPr4pIB-ikCon-1" value="" style="group;fontSize=16;" vertex="1" connectable="0" parent="1">
          <mxGeometry x="120" y="210" width="350" height="340" as="geometry" />
        </mxCell>
        <mxCell id="Rb40YyXB7E7N2DCQwQ0s-11" value="" style="rounded=0;whiteSpace=wrap;html=1;fillColor=default;fontSize=16;" parent="d6kypXudPr4pIB-ikCon-1" vertex="1">
          <mxGeometry width="350" height="340" as="geometry" />
        </mxCell>
        <mxCell id="Rb40YyXB7E7N2DCQwQ0s-1" value="Systolic Array" style="whiteSpace=wrap;html=1;aspect=fixed;fontSize=16;" parent="d6kypXudPr4pIB-ikCon-1" vertex="1">
          <mxGeometry x="180" y="30" width="150" height="150" as="geometry" />
        </mxCell>
        <mxCell id="Rb40YyXB7E7N2DCQwQ0s-2" value="Skew" style="rounded=0;whiteSpace=wrap;html=1;fontSize=16;" parent="d6kypXudPr4pIB-ikCon-1" vertex="1">
          <mxGeometry x="100" y="30" width="60" height="150" as="geometry" />
        </mxCell>
        <mxCell id="Rb40YyXB7E7N2DCQwQ0s-3" value="Skew" style="rounded=0;whiteSpace=wrap;html=1;fontSize=16;" parent="d6kypXudPr4pIB-ikCon-1" vertex="1">
          <mxGeometry x="180" y="190" width="150" height="50" as="geometry" />
        </mxCell>
        <mxCell id="Rb40YyXB7E7N2DCQwQ0s-4" value="Fetcher" style="rounded=0;whiteSpace=wrap;html=1;fontSize=16;" parent="d6kypXudPr4pIB-ikCon-1" vertex="1">
          <mxGeometry x="20" y="30" width="60" height="150" as="geometry" />
        </mxCell>
        <mxCell id="Rb40YyXB7E7N2DCQwQ0s-5" value="Fetcher" style="rounded=0;whiteSpace=wrap;html=1;fontSize=16;" parent="d6kypXudPr4pIB-ikCon-1" vertex="1">
          <mxGeometry x="180" y="260" width="150" height="50" as="geometry" />
        </mxCell>
        <mxCell id="Rb40YyXB7E7N2DCQwQ0s-12" value="Core" style="text;html=1;strokeColor=none;fillColor=none;align=center;verticalAlign=middle;whiteSpace=wrap;rounded=0;fontSize=16;" parent="d6kypXudPr4pIB-ikCon-1" vertex="1">
          <mxGeometry x="20" y="290" width="60" height="30" as="geometry" />
        </mxCell>
        <mxCell id="Rb40YyXB7E7N2DCQwQ0s-13" value="Reader" style="rounded=0;whiteSpace=wrap;html=1;fontSize=16;" parent="d6kypXudPr4pIB-ikCon-1" vertex="1">
          <mxGeometry x="20" y="200" width="140" height="80" as="geometry" />
        </mxCell>
        <mxCell id="d6kypXudPr4pIB-ikCon-2" value="" style="group;fontSize=16;" vertex="1" connectable="0" parent="1">
          <mxGeometry x="560" y="210" width="350" height="340" as="geometry" />
        </mxCell>
        <mxCell id="Rb40YyXB7E7N2DCQwQ0s-16" value="" style="rounded=0;whiteSpace=wrap;html=1;fillColor=default;fontSize=16;" parent="d6kypXudPr4pIB-ikCon-2" vertex="1">
          <mxGeometry width="350" height="340" as="geometry" />
        </mxCell>
        <mxCell id="Rb40YyXB7E7N2DCQwQ0s-17" value="Systolic Array" style="whiteSpace=wrap;html=1;aspect=fixed;fontSize=16;" parent="d6kypXudPr4pIB-ikCon-2" vertex="1">
          <mxGeometry x="180" y="30" width="150" height="150" as="geometry" />
        </mxCell>
        <mxCell id="Rb40YyXB7E7N2DCQwQ0s-18" value="Skew" style="rounded=0;whiteSpace=wrap;html=1;fontSize=16;" parent="d6kypXudPr4pIB-ikCon-2" vertex="1">
          <mxGeometry x="100" y="30" width="60" height="150" as="geometry" />
        </mxCell>
        <mxCell id="Rb40YyXB7E7N2DCQwQ0s-19" value="Skew" style="rounded=0;whiteSpace=wrap;html=1;fontSize=16;" parent="d6kypXudPr4pIB-ikCon-2" vertex="1">
          <mxGeometry x="180" y="190" width="150" height="50" as="geometry" />
        </mxCell>
        <mxCell id="Rb40YyXB7E7N2DCQwQ0s-20" value="Fetcher" style="rounded=0;whiteSpace=wrap;html=1;fontSize=16;" parent="d6kypXudPr4pIB-ikCon-2" vertex="1">
          <mxGeometry x="20" y="30" width="60" height="150" as="geometry" />
        </mxCell>
        <mxCell id="Rb40YyXB7E7N2DCQwQ0s-21" value="Fetcher" style="rounded=0;whiteSpace=wrap;html=1;fontSize=16;" parent="d6kypXudPr4pIB-ikCon-2" vertex="1">
          <mxGeometry x="180" y="260" width="150" height="50" as="geometry" />
        </mxCell>
        <mxCell id="Rb40YyXB7E7N2DCQwQ0s-22" value="Core" style="text;html=1;strokeColor=none;fillColor=none;align=center;verticalAlign=middle;whiteSpace=wrap;rounded=0;fontSize=16;" parent="d6kypXudPr4pIB-ikCon-2" vertex="1">
          <mxGeometry x="20" y="290" width="60" height="30" as="geometry" />
        </mxCell>
        <mxCell id="Rb40YyXB7E7N2DCQwQ0s-23" value="Reader" style="rounded=0;whiteSpace=wrap;html=1;fontSize=16;" parent="d6kypXudPr4pIB-ikCon-2" vertex="1">
          <mxGeometry x="20" y="200" width="140" height="80" as="geometry" />
        </mxCell>
        <mxCell id="d6kypXudPr4pIB-ikCon-21" value="" style="endArrow=classic;html=1;rounded=0;entryX=0.5;entryY=1;entryDx=0;entryDy=0;startArrow=classic;startFill=1;strokeWidth=2;fontSize=16;" edge="1" parent="1">
          <mxGeometry width="50" height="50" relative="1" as="geometry">
            <mxPoint x="280.29" y="750" as="sourcePoint" />
            <mxPoint x="280.29000000000025" y="650" as="targetPoint" />
          </mxGeometry>
        </mxCell>
        <mxCell id="d6kypXudPr4pIB-ikCon-22" value="" style="group;fontSize=16;" vertex="1" connectable="0" parent="1">
          <mxGeometry x="106" y="750" width="350" height="340" as="geometry" />
        </mxCell>
        <mxCell id="d6kypXudPr4pIB-ikCon-13" value="" style="rounded=0;whiteSpace=wrap;html=1;fillColor=default;fontSize=16;" vertex="1" parent="d6kypXudPr4pIB-ikCon-22">
          <mxGeometry width="350" height="340" as="geometry" />
        </mxCell>
        <mxCell id="d6kypXudPr4pIB-ikCon-17" value="Fetcher" style="rounded=0;whiteSpace=wrap;html=1;fontSize=16;" vertex="1" parent="d6kypXudPr4pIB-ikCon-22">
          <mxGeometry x="20" y="30" width="60" height="150" as="geometry" />
        </mxCell>
        <mxCell id="d6kypXudPr4pIB-ikCon-15" value="Skew" style="rounded=0;whiteSpace=wrap;html=1;fontSize=16;" vertex="1" parent="d6kypXudPr4pIB-ikCon-22">
          <mxGeometry x="100" y="30" width="60" height="150" as="geometry" />
        </mxCell>
        <mxCell id="d6kypXudPr4pIB-ikCon-14" value="Systolic Array" style="whiteSpace=wrap;html=1;aspect=fixed;fontSize=16;" vertex="1" parent="d6kypXudPr4pIB-ikCon-22">
          <mxGeometry x="180" y="30" width="150" height="150" as="geometry" />
        </mxCell>
        <mxCell id="d6kypXudPr4pIB-ikCon-20" value="Reader" style="rounded=0;whiteSpace=wrap;html=1;fontSize=16;" vertex="1" parent="d6kypXudPr4pIB-ikCon-22">
          <mxGeometry x="20" y="200" width="140" height="80" as="geometry" />
        </mxCell>
        <mxCell id="d6kypXudPr4pIB-ikCon-19" value="Core" style="text;html=1;strokeColor=none;fillColor=none;align=center;verticalAlign=middle;whiteSpace=wrap;rounded=0;fontSize=16;" vertex="1" parent="d6kypXudPr4pIB-ikCon-22">
          <mxGeometry x="20" y="290" width="60" height="30" as="geometry" />
        </mxCell>
        <mxCell id="d6kypXudPr4pIB-ikCon-16" value="Skew" style="rounded=0;whiteSpace=wrap;html=1;fontSize=16;" vertex="1" parent="d6kypXudPr4pIB-ikCon-22">
          <mxGeometry x="180" y="190" width="150" height="50" as="geometry" />
        </mxCell>
        <mxCell id="d6kypXudPr4pIB-ikCon-18" value="Fetcher" style="rounded=0;whiteSpace=wrap;html=1;fontSize=16;" vertex="1" parent="d6kypXudPr4pIB-ikCon-22">
          <mxGeometry x="180" y="260" width="150" height="50" as="geometry" />
        </mxCell>
        <mxCell id="d6kypXudPr4pIB-ikCon-23" value="" style="endArrow=classic;html=1;rounded=0;entryX=0.5;entryY=1;entryDx=0;entryDy=0;startArrow=classic;startFill=1;strokeWidth=2;fontSize=16;" edge="1" parent="1">
          <mxGeometry width="50" height="50" relative="1" as="geometry">
            <mxPoint x="730.29" y="750" as="sourcePoint" />
            <mxPoint x="730.2900000000002" y="650" as="targetPoint" />
          </mxGeometry>
        </mxCell>
        <mxCell id="d6kypXudPr4pIB-ikCon-24" value="" style="group;fontSize=16;" vertex="1" connectable="0" parent="1">
          <mxGeometry x="556" y="750" width="350" height="340" as="geometry" />
        </mxCell>
        <mxCell id="d6kypXudPr4pIB-ikCon-25" value="" style="rounded=0;whiteSpace=wrap;html=1;fillColor=default;fontSize=16;" vertex="1" parent="d6kypXudPr4pIB-ikCon-24">
          <mxGeometry width="350" height="340" as="geometry" />
        </mxCell>
        <mxCell id="d6kypXudPr4pIB-ikCon-26" value="Fetcher" style="rounded=0;whiteSpace=wrap;html=1;fontSize=16;" vertex="1" parent="d6kypXudPr4pIB-ikCon-24">
          <mxGeometry x="20" y="30" width="60" height="150" as="geometry" />
        </mxCell>
        <mxCell id="d6kypXudPr4pIB-ikCon-27" value="Skew" style="rounded=0;whiteSpace=wrap;html=1;fontSize=16;" vertex="1" parent="d6kypXudPr4pIB-ikCon-24">
          <mxGeometry x="100" y="30" width="60" height="150" as="geometry" />
        </mxCell>
        <mxCell id="d6kypXudPr4pIB-ikCon-28" value="Systolic Array" style="whiteSpace=wrap;html=1;aspect=fixed;fontSize=16;" vertex="1" parent="d6kypXudPr4pIB-ikCon-24">
          <mxGeometry x="180" y="30" width="150" height="150" as="geometry" />
        </mxCell>
        <mxCell id="d6kypXudPr4pIB-ikCon-29" value="Reader" style="rounded=0;whiteSpace=wrap;html=1;fontSize=16;" vertex="1" parent="d6kypXudPr4pIB-ikCon-24">
          <mxGeometry x="20" y="200" width="140" height="80" as="geometry" />
        </mxCell>
        <mxCell id="d6kypXudPr4pIB-ikCon-30" value="Core" style="text;html=1;strokeColor=none;fillColor=none;align=center;verticalAlign=middle;whiteSpace=wrap;rounded=0;fontSize=16;" vertex="1" parent="d6kypXudPr4pIB-ikCon-24">
          <mxGeometry x="20" y="290" width="60" height="30" as="geometry" />
        </mxCell>
        <mxCell id="d6kypXudPr4pIB-ikCon-31" value="Skew" style="rounded=0;whiteSpace=wrap;html=1;fontSize=16;" vertex="1" parent="d6kypXudPr4pIB-ikCon-24">
          <mxGeometry x="180" y="190" width="150" height="50" as="geometry" />
        </mxCell>
        <mxCell id="d6kypXudPr4pIB-ikCon-32" value="Fetcher" style="rounded=0;whiteSpace=wrap;html=1;fontSize=16;" vertex="1" parent="d6kypXudPr4pIB-ikCon-24">
          <mxGeometry x="180" y="260" width="150" height="50" as="geometry" />
        </mxCell>
        <mxCell id="d6kypXudPr4pIB-ikCon-35" value="&lt;font style=&quot;font-size: 30px;&quot;&gt;Matrix Multiplication Network&lt;/font&gt;" style="text;html=1;strokeColor=none;fillColor=none;align=center;verticalAlign=middle;whiteSpace=wrap;rounded=0;fontSize=30;" vertex="1" parent="1">
          <mxGeometry x="41" y="1340" width="480" height="90" as="geometry" />
        </mxCell>
        <mxCell id="d6kypXudPr4pIB-ikCon-38" value="&lt;font style=&quot;font-size: 30px;&quot;&gt;GB&lt;/font&gt;" style="rounded=0;whiteSpace=wrap;html=1;" vertex="1" parent="1">
          <mxGeometry x="1120" y="525" width="120" height="560" as="geometry" />
        </mxCell>
        <mxCell id="d6kypXudPr4pIB-ikCon-39" value="&lt;font style=&quot;font-size: 30px;&quot;&gt;SIMD&lt;/font&gt;" style="rounded=0;whiteSpace=wrap;html=1;" vertex="1" parent="1">
          <mxGeometry x="1380" y="520" width="120" height="560" as="geometry" />
        </mxCell>
        <mxCell id="d6kypXudPr4pIB-ikCon-40" value="" style="endArrow=classic;startArrow=classic;html=1;rounded=0;entryX=0;entryY=0.5;entryDx=0;entryDy=0;exitX=1;exitY=0.5;exitDx=0;exitDy=0;" edge="1" parent="1" source="d6kypXudPr4pIB-ikCon-34" target="d6kypXudPr4pIB-ikCon-38">
          <mxGeometry width="50" height="50" relative="1" as="geometry">
            <mxPoint x="940" y="900" as="sourcePoint" />
            <mxPoint x="990" y="850" as="targetPoint" />
          </mxGeometry>
        </mxCell>
        <mxCell id="d6kypXudPr4pIB-ikCon-41" value="" style="endArrow=classic;startArrow=classic;html=1;rounded=0;entryX=0;entryY=0.5;entryDx=0;entryDy=0;exitX=1;exitY=0.5;exitDx=0;exitDy=0;" edge="1" parent="1">
          <mxGeometry width="50" height="50" relative="1" as="geometry">
            <mxPoint x="1240" y="804.17" as="sourcePoint" />
            <mxPoint x="1380" y="804.17" as="targetPoint" />
          </mxGeometry>
        </mxCell>
        <mxCell id="d6kypXudPr4pIB-ikCon-42" value="" style="endArrow=classic;startArrow=classic;html=1;rounded=0;entryX=0;entryY=0.5;entryDx=0;entryDy=0;exitX=1;exitY=0.5;exitDx=0;exitDy=0;" edge="1" parent="1">
          <mxGeometry width="50" height="50" relative="1" as="geometry">
            <mxPoint x="-99" y="799.29" as="sourcePoint" />
            <mxPoint x="41" y="799.29" as="targetPoint" />
          </mxGeometry>
        </mxCell>
      </root>
    </mxGraphModel>
  </diagram>
</mxfile>
